<svg width="18" height="14" viewBox="0 0 18 14" fill="none" xmlns="http://www.w3.org/2000/svg">
<path d="M15.261 1.1824C17.2939 4.23337 18.2978 7.67479 17.9225 11.6366C17.9209 11.6534 17.9124 11.6688 17.8989 11.6789C16.3594 12.8328 14.8679 13.533 13.3973 13.9974C13.3859 14.001 13.3736 14.0008 13.3623 13.9969C13.3509 13.993 13.3411 13.9855 13.3341 13.9756C12.9943 13.4931 12.6856 12.9844 12.4152 12.4501C12.3997 12.4187 12.4138 12.3808 12.4458 12.3684C12.9361 12.1798 13.4023 11.9538 13.8507 11.6862C13.886 11.6651 13.8883 11.6134 13.8556 11.5886C13.7605 11.5165 13.6662 11.4407 13.576 11.3649C13.5591 11.3509 13.5364 11.3482 13.5172 11.3576C10.606 12.7299 7.41682 12.7299 4.47113 11.3576C4.452 11.3489 4.42928 11.3518 4.41285 11.3656C4.32285 11.4414 4.22835 11.5165 4.13408 11.5886C4.10145 11.6134 4.10415 11.6651 4.1397 11.6862C4.58813 11.9488 5.05432 12.1798 5.54392 12.3693C5.57565 12.3817 5.59072 12.4187 5.57497 12.4501C5.31037 12.985 5.00167 13.4938 4.65563 13.9763C4.64055 13.9958 4.6158 14.0048 4.5924 13.9974C3.12878 13.533 1.63726 12.8328 0.097808 11.6789C0.084983 11.6688 0.075758 11.6527 0.074408 11.636C-0.239241 8.20901 0.399982 4.73911 2.73345 1.18171C2.73908 1.1723 2.74763 1.16495 2.75753 1.16059C3.9057 0.622692 5.13577 0.226966 6.42142 0.000968189C6.44482 -0.00270657 6.46822 0.00831771 6.48037 0.0294476C6.63922 0.316538 6.8208 0.684703 6.94365 0.985575C8.29882 0.774276 9.67514 0.774276 11.0587 0.985575C11.1815 0.691134 11.3568 0.316538 11.515 0.0294476C11.5206 0.0189653 11.5293 0.0105674 11.5399 0.00545295C11.5505 0.000338472 11.5624 -0.00123114 11.5739 0.000968189C12.8602 0.227655 14.0903 0.623381 15.2376 1.16059C15.2477 1.16495 15.256 1.1723 15.261 1.1824ZM7.6326 7.69822C7.64677 6.68513 6.92317 5.84682 6.01485 5.84682C5.11395 5.84682 4.39733 6.67778 4.39733 7.69822C4.39733 8.71842 5.12812 9.54938 6.01485 9.54938C6.91597 9.54938 7.6326 8.71842 7.6326 7.69822ZM13.6135 7.69822C13.6277 6.68513 12.9041 5.84682 11.996 5.84682C11.0949 5.84682 10.3783 6.67778 10.3783 7.69822C10.3783 8.71842 11.1091 9.54938 11.996 9.54938C12.9041 9.54938 13.6135 8.71842 13.6135 7.69822Z" fill="white"/>
</svg>
