<svg width="22" height="22" viewBox="0 0 22 22" fill="none" xmlns="http://www.w3.org/2000/svg">
<path d="M10.1816 0.0486205C6.6567 0.320211 3.51522 2.27464 1.62405 5.37404C-0.309142 8.5373 -0.535032 12.6699 1.04619 16.0568C1.93399 17.9633 3.25781 19.513 4.95986 20.6633C5.60601 21.1 6.6934 21.6538 7.3081 21.8562L7.7336 22L7.9384 21.8988C8.2274 21.7497 8.2589 21.6112 8.2274 20.397L8.2064 19.3639L8.0645 19.3959C7.991 19.4118 7.6548 19.4438 7.3186 19.4598C6.3099 19.5184 5.56398 19.2787 5.01764 18.7249C4.81802 18.5225 4.67093 18.2882 4.43453 17.8036C4.08782 17.0793 3.78313 16.6959 3.27882 16.3338C3.11597 16.2166 2.94787 16.0622 2.90584 15.9876C2.8428 15.8598 2.84806 15.8385 2.95837 15.748C3.03717 15.6787 3.16325 15.6468 3.3261 15.6468C3.96174 15.6468 4.57112 16.0249 5.0229 16.6959C5.58499 17.532 6.0368 17.8781 6.6987 17.9846C7.1557 18.0645 8.0172 17.9154 8.2484 17.7237C8.2799 17.6917 8.3272 17.5639 8.3429 17.4361C8.385 17.1592 8.6214 16.6373 8.8105 16.4136L8.9523 16.2432L8.6476 16.2059C6.4098 15.929 4.91258 14.8639 4.32422 13.1278C4.0563 12.3344 3.99326 11.8764 3.98801 10.8273C3.98801 9.9859 4.00377 9.8208 4.10883 9.448C4.26118 8.9154 4.53435 8.3616 4.83903 7.9569L5.07543 7.6427L4.98612 7.3338C4.79701 6.64149 4.84954 5.61368 5.10695 4.9054L5.20151 4.64978L5.47468 4.6338C6.0053 4.60185 6.809 4.89475 7.7178 5.44859L8.2589 5.77877L8.8262 5.65628C9.6563 5.48054 10.5861 5.40066 11.4424 5.43794C12.1253 5.46989 13.1444 5.60835 13.5699 5.73617C13.7328 5.78409 13.7801 5.76812 14.2686 5.46989C15.1669 4.92138 15.9601 4.62315 16.5328 4.62315H16.8217L16.9057 4.87877C17.1631 5.65096 17.2157 6.59356 17.0476 7.2539L16.953 7.6214L17.2052 7.9728C17.8881 8.9208 18.1297 9.89 18.0352 11.2906C17.9406 12.7764 17.5624 13.8042 16.8164 14.6136C16.0442 15.4497 15.0566 15.929 13.5909 16.1687L13.0551 16.2539L13.218 16.4403C13.3913 16.6426 13.5437 16.9515 13.675 17.3775C13.738 17.5959 13.7538 18.0006 13.7643 19.6249C13.7695 21.8296 13.7695 21.8083 14.1215 21.9308C14.2791 21.9787 14.3579 21.968 14.7151 21.8509C15.3193 21.6485 16.4119 21.0894 17.0423 20.6633C18.9492 19.3799 20.3886 17.5746 21.2397 15.3965C21.5391 14.619 21.7124 13.9693 21.8963 12.8776C21.9856 12.361 22.0276 11.1361 21.9804 10.4705C21.8595 8.8569 21.5443 7.6693 20.8562 6.24741C19.1331 2.69002 15.6765 0.33086 11.7576 0.0432905C10.9591 -0.0152895 10.9538 -0.0152895 10.1816 0.0486205Z" fill="white"/>
</svg>
