<svg width="18" height="14" viewBox="0 0 18 14" fill="none" xmlns="http://www.w3.org/2000/svg">
<path d="M5.6543 14C12.447 14 16.1629 8.6124 16.1629 3.9485C16.1629 3.7978 16.1629 3.6449 16.1561 3.4941C16.8796 2.9928 17.5039 2.3722 18 1.66127C17.3242 1.94648 16.6081 2.1345 15.8749 2.2191C16.6472 1.77718 17.2257 1.08189 17.5027 0.262422C16.7771 0.673922 15.9829 0.962793 15.1549 1.11638C14.5982 0.548902 13.8616 0.172963 13.0591 0.0467929C12.2566 -0.0793771 11.4331 0.0512727 10.716 0.418503C9.9989 0.785733 9.4284 1.36904 9.0928 2.0781C8.7571 2.7871 8.6751 3.5823 8.8594 4.3405C7.391 4.27 5.9544 3.9049 4.6429 3.2688C3.33143 2.6326 2.17427 1.73972 1.2465 0.647942C0.77551 1.42661 0.63177 2.3477 0.84448 3.2241C1.05718 4.1005 1.61039 4.8666 2.39175 5.3668C1.80623 5.3477 1.23359 5.1972 0.72 4.9274V4.9759C0.72101 5.7916 1.01622 6.5819 1.55573 7.2133C2.09525 7.8447 2.84597 8.2785 3.681 8.4412C3.36405 8.5248 3.03663 8.5665 2.70788 8.5651C2.47611 8.5657 2.2448 8.5452 2.01712 8.5037C2.25313 9.2059 2.71268 9.8198 3.3314 10.2595C3.95012 10.6992 4.697 10.9426 5.4675 10.9557C4.1586 11.9397 2.54183 12.4734 0.8775 12.4709C0.58424 12.472 0.29118 12.4559 0 12.4224C1.6892 13.4532 3.65096 14.0006 5.6543 14Z" fill="white"/>
</svg>
