<svg width="16" height="12" viewBox="0 0 16 12" fill="none" xmlns="http://www.w3.org/2000/svg">
<path d="M14.7229 1.4101L16 0.25336V0H11.5771L8.425 7.4318L4.8396 0H0.20208V0.25336L1.69375 1.9542C1.83958 2.0799 1.91458 2.2645 1.89583 2.4491V9.1326C1.94167 9.3741 1.86042 9.6196 1.68125 9.7944L0 11.725V11.9745H4.7625V11.7211L3.0833 9.7964C2.99336 9.7103 2.92569 9.6058 2.88558 9.491C2.84547 9.3762 2.83401 9.2542 2.85208 9.1345V3.3525L7.0333 11.9784H7.5188L11.1146 3.3525V10.2245C11.1146 10.4052 11.1146 10.4426 10.9896 10.5624L9.6958 11.7466V12H15.9708V11.7466L14.7229 10.5899C14.6146 10.5113 14.5583 10.3797 14.5813 10.252V1.748C14.5705 1.6848 14.5779 1.6202 14.6029 1.5607C14.6278 1.5013 14.6693 1.4492 14.7229 1.4101Z" fill="white"/>
</svg>
